PathFileType	4	(X/Y/Z)	C:/Users/opensim2020/Desktop/walking_exp_matlab/subject06_walking15_straight_01.trc	
DataRate	CameraRate	NumFrames	NumMarkers	Units	OrigDataRate	OrigDataStartFrame	OrigNumFrames	
100.00	100.00	7	47	mm	100.00	834	232	
Frame#	Time	LFHD			RFHD			LBHD			RBHD			C7			T10			CLAV			STRN			RBAK			LSHO			LUPA			LELB			LFRM			LWRA			LWRB			LFIN			RSHO			RUPA			RELB			RFRM			RWRA			RWRB			RFIN			LASI			RASI			LPSI			RPSI			LTHI			LKNE			LTIB			LANK			LHEE			LTOE			RTHI			RKNE			RTIB			RANK			RHEE			RTOE			*39			*40			*41			*42			*43			*44			*45			*46			
		X1	Y1	Z1	X2	Y2	Z2	X3	Y3	Z3	X4	Y4	Z4	X5	Y5	Z5	X6	Y6	Z6	X7	Y7	Z7	X8	Y8	Z8	X9	Y9	Z9	X10	Y10	Z10	X11	Y11	Z11	X12	Y12	Z12	X13	Y13	Z13	X14	Y14	Z14	X15	Y15	Z15	X16	Y16	Z16	X17	Y17	Z17	X18	Y18	Z18	X19	Y19	Z19	X20	Y20	Z20	X21	Y21	Z21	X22	Y22	Z22	X23	Y23	Z23	X24	Y24	Z24	X25	Y25	Z25	X26	Y26	Z26	X27	Y27	Z27	X28	Y28	Z28	X29	Y29	Z29	X30	Y30	Z30	X31	Y31	Z31	X32	Y32	Z32	X33	Y33	Z33	X34	Y34	Z34	X35	Y35	Z35	X36	Y36	Z36	X37	Y37	Z37	X38	Y38	Z38	X39	Y39	Z39	X40	Y40	Z40	X41	Y41	Z41	X42	Y42	Z42	X43	Y43	Z43	X44	Y44	Z44	X45	Y45	Z45	X46	Y46	Z46	X47	Y47	Z47	

59	0.580	1374.73340	-636.55292	1669.51501	1506.13513	-626.30151	1665.38892	1387.37610	-769.99976	1616.86023	1516.41309	-758.04395	1617.59729	1447.54626	-766.78528	1461.97510	1466.93665	-812.62177	1136.17273	1444.90881	-656.02905	1384.14587	1440.12683	-621.67548	1209.51917	1534.62341	-841.42725	1296.55994	1284.63818	-720.32489	1413.28638	1216.69812	-743.08826	1210.90674	1208.70605	-756.75970	1099.23560	1185.71069	-740.31873	949.78357	1219.67041	-678.62646	834.08862	1191.50732	-743.99121	830.26099	1184.80237	-703.99255	748.66730	1606.81104	-697.44940	1419.74902	1702.51379	-734.44788	1225.90295	1721.14990	-720.74640	1106.17041	1741.07422	-680.92889	994.44470	1710.21204	-586.54156	876.15265	1749.61462	-639.70331	863.97455	1753.01831	-584.75848	800.10370	1354.52319	-645.03949	973.04657	1570.96387	-634.48352	981.47894	1386.32434	-801.44550	997.68073	1553.71045	-786.51141	1006.89996	1300.34680	-645.25311	659.63477	1323.11414	-590.57532	506.09378	1332.11938	-728.24646	300.34595	1370.33325	-821.10199	156.49936	1417.59412	-863.31018	161.38226	1370.80896	-713.46136	62.94041	1622.39990	-688.17810	643.02637	1594.98010	-687.18225	517.83405	1587.89343	-750.81793	256.47351	1537.05176	-779.58838	73.17606	1493.10388	-821.85394	49.04053	1534.35132	-630.96381	42.20116	1439.27429	-731.46582	1712.22729																					 
60	0.590	1374.30334	-628.11487	1669.30005	1505.83130	-617.19684	1665.28650	1387.40991	-761.49896	1616.63037	1516.37000	-749.17108	1617.51123	1447.74048	-757.97412	1461.81604	1468.45020	-803.95227	1136.15417	1444.87988	-647.42212	1383.95190	1440.43689	-613.03436	1209.44702	1535.64429	-832.13190	1296.61096	1284.80920	-712.49860	1412.78577	1217.00208	-737.60608	1210.69727	1209.25879	-752.31299	1099.09033	1186.27161	-737.60645	949.49298	1220.28662	-677.30011	833.01404	1191.95117	-742.54395	829.98151	1185.54834	-703.62091	747.77765	1606.85559	-688.28925	1420.08215	1703.23425	-725.39441	1226.64880	1722.29358	-710.94147	1107.12952	1742.11743	-668.17566	996.46997	1710.39429	-570.97064	880.97937	1749.77820	-623.52557	867.04120	1753.28748	-567.08441	805.01337	1355.61011	-636.47937	973.45728	1571.69800	-626.15533	981.03558	1387.48499	-793.11432	997.57098	1554.91943	-778.45801	1006.53571	1299.86011	-633.26483	661.27264	1322.96912	-577.04205	508.39294	1332.22009	-707.04480	296.67053	1370.74194	-793.21930	148.46332	1418.26953	-835.18420	151.34904	1370.51697	-680.94336	60.35853	1622.70435	-682.47345	642.42255	1595.50806	-682.79559	517.09424	1587.93213	-749.24274	256.37521	1536.93201	-779.52856	73.25346	1492.95532	-821.88660	49.18732	1534.30566	-630.92517	42.14548	1439.09741	-722.78406	1712.11194																					 
61	0.600	1373.86304	-619.62689	1668.91309	1505.39368	-608.43024	1665.05542	1387.40039	-752.97552	1616.26440	1516.46667	-740.41052	1617.31665	1447.89551	-749.06311	1461.48035	1469.86719	-795.37030	1136.06567	1444.84534	-638.71082	1383.66443	1440.72644	-604.42706	1209.15833	1536.67102	-822.98578	1296.63306	1285.02234	-704.63879	1412.08618	1217.31897	-731.93683	1210.28845	1209.68469	-747.56177	1098.86633	1186.79004	-734.66931	949.07281	1220.84192	-675.68420	831.91650	1192.59094	-741.22101	829.73431	1186.63452	-702.83844	746.83252	1606.84802	-679.04510	1420.28333	1703.93945	-716.05963	1227.25281	1723.52832	-700.88538	1108.02063	1742.95288	-655.64392	998.48499	1710.44165	-555.69165	885.79449	1749.94641	-607.67639	870.23547	1752.95117	-549.36218	809.91315	1356.62671	-627.84064	973.66266	1572.45459	-617.95325	980.51331	1388.67383	-784.68384	997.37708	1555.88611	-769.79303	1005.98773	1299.46692	-622.29938	662.86694	1322.58643	-564.06024	510.36316	1332.40491	-685.97375	292.86792	1371.42590	-764.55542	140.49275	1419.29321	-806.40839	141.25771	1370.13220	-647.99829	57.94670	1623.14941	-676.56909	641.61237	1595.96997	-678.30579	516.29413	1588.09290	-747.28400	256.16711	1536.83972	-779.24127	73.28730	1492.83630	-821.72815	49.37245	1534.23279	-630.58801	41.87880	1438.88879	-714.12994	1711.80969																					 
62	0.610	1373.38818	-611.07587	1668.38672	1504.83081	-599.76392	1664.71558	1387.29700	-744.40479	1615.73560	1516.17505	-731.44843	1616.90234	1448.09045	-740.43787	1461.05688	1471.13293	-786.83978	1135.72986	1444.78638	-629.98883	1383.19934	1441.12439	-595.59241	1208.72778	1537.69958	-813.82837	1296.65063	1285.15027	-696.66162	1411.26648	1217.68213	-725.96460	1209.74744	1210.30652	-742.69525	1098.46387	1187.39563	-731.57758	948.51166	1221.28577	-673.61560	830.78564	1193.24402	-739.35706	829.21576	1187.04114	-702.43994	746.02881	1606.78210	-669.72913	1420.28992	1704.68872	-706.50275	1227.73792	1724.55371	-690.99274	1108.74329	1743.75610	-643.27142	1000.44006	1710.45581	-540.69727	890.46002	1750.12781	-592.04059	873.46814	1752.65649	-531.88989	814.77014	1357.62244	-619.00537	973.56177	1573.40869	-609.68213	979.96478	1389.69519	-775.82990	996.89093	1556.97815	-761.70325	1005.38074	1298.30566	-610.68848	664.16278	1321.95862	-551.65643	511.95807	1332.61133	-664.89581	288.80692	1372.29639	-735.30756	132.57527	1420.75610	-776.36963	131.09091	1369.13000	-614.82977	56.29143	1623.51172	-670.44397	640.63715	1596.39722	-673.79126	515.42053	1588.22717	-745.11609	255.85101	1536.76135	-778.81415	73.31140	1492.72156	-821.48895	49.58274	1534.15540	-630.13489	41.57793	1438.57190	-705.47931	1711.33606																					 
63	0.620	1372.85815	-602.45935	1667.68945	1504.27686	-590.96826	1664.16687	1387.10706	-735.73370	1614.99939	1515.98596	-722.55933	1616.35388	1448.19446	-731.53009	1460.41858	1472.13477	-777.72394	1135.01794	1444.75647	-621.22913	1382.58643	1441.47046	-586.76141	1208.13513	1538.61902	-804.71313	1296.43921	1285.27808	-688.60681	1410.28979	1218.11194	-719.72656	1209.03320	1210.83459	-737.59662	1097.99084	1188.08923	-728.14575	947.89325	1221.41541	-671.14850	829.70044	1193.95447	-737.39417	828.70233	1187.70227	-701.52936	745.10260	1606.71167	-660.46936	1420.16309	1705.47937	-696.68024	1228.02295	1725.74817	-680.74780	1109.34424	1744.43433	-630.86542	1002.23474	1710.34253	-525.97845	894.87817	1750.19177	-576.65186	876.40430	1752.47498	-515.00073	819.55682	1358.50305	-610.03473	973.19391	1574.35083	-601.48102	979.23950	1390.63672	-767.09473	996.34680	1557.79858	-752.87408	1004.69781	1297.48132	-599.94513	665.05347	1321.20300	-539.79517	513.16211	1332.96375	-643.99164	284.69516	1373.68201	-704.93890	124.43278	1422.31287	-746.39966	121.74294	1368.23254	-581.38342	54.62142	1623.84314	-664.06079	639.75964	1596.93933	-668.95251	514.49530	1588.37061	-742.74634	255.47496	1536.71472	-778.44891	73.30495	1492.65625	-821.42743	49.92411	1534.23572	-629.75653	41.29988	1438.17151	-696.78589	1710.68018																					 
64	0.630	1372.30542	-593.81781	1666.81262	1503.84375	-581.88898	1663.54004	1386.87976	-727.08936	1614.12512	1515.87939	-713.75726	1615.67529	1448.32898	-722.71698	1459.62244	1473.03699	-768.80762	1134.39233	1444.67468	-612.39447	1381.78223	1441.86047	-577.93341	1207.37122	1539.40002	-795.51782	1296.08459	1285.41296	-680.47534	1409.19714	1218.56348	-713.14514	1208.17542	1211.56335	-732.22186	1097.28833	1188.75293	-724.50159	947.20428	1222.22461	-668.97864	828.23303	1194.75916	-735.03784	828.05939	1188.28833	-700.05560	743.99835	1606.62878	-651.12714	1419.86768	1706.34570	-686.66699	1228.10608	1726.54541	-670.96912	1109.74951	1744.94617	-618.63135	1003.79077	1710.25415	-511.54602	899.06628	1750.34680	-561.42828	879.31128	1752.10999	-498.47638	823.98749	1359.42749	-601.02631	972.49524	1575.21509	-593.16766	978.52478	1391.41553	-758.18420	995.62897	1558.56641	-744.17938	1003.88776	1297.02136	-589.24109	665.79028	1320.25391	-528.68152	513.96918	1333.24231	-622.73877	280.25412	1374.63757	-674.46295	116.87544	1424.22583	-714.34088	111.81956	1367.25000	-547.54681	53.50248	1624.29102	-657.62714	638.71826	1597.49561	-663.80231	513.39539	1588.56140	-740.41199	255.05495	1536.74451	-778.09570	73.26847	1492.71362	-821.24188	50.23697	1534.40637	-629.35040	40.86496	1437.71191	-688.04559	1709.90637																					 
65	0.640	1371.73828	-585.11670	1665.79761	1503.13916	-573.14746	1662.72241	1386.55811	-718.37518	1613.07788	1515.58496	-704.87756	1614.91650	1448.42700	-713.94550	1458.72058	1473.76538	-759.66644	1133.56665	1444.59534	-603.49042	1380.90820	1442.28564	-568.88403	1206.50964	1540.08569	-786.26129	1295.40076	1285.49292	-672.08209	1407.92188	1219.13538	-706.35773	1207.13086	1212.21094	-726.58270	1096.57300	1189.45032	-720.72833	946.32239	1222.74585	-666.39996	826.75580	1195.45618	-732.58502	827.41516	1189.18982	-698.09784	742.82245	1606.53772	-641.88440	1419.39087	1707.22424	-676.59460	1228.03784	1727.57837	-660.59570	1109.96387	1745.51123	-606.15991	1005.16968	1710.06665	-497.36575	902.93536	1750.47009	-546.48395	882.00964	1751.80042	-482.16208	828.11523	1360.36218	-591.67126	971.76318	1576.32996	-584.62030	977.58411	1392.16626	-749.16174	994.79401	1559.37830	-735.64453	1003.05139	1295.95837	-579.56165	665.85516	1319.25574	-518.06671	514.27112	1333.54614	-601.72046	275.85736	1375.68396	-643.88599	109.93549	1425.83118	-682.52197	103.04112	1366.42346	-513.67889	52.56310	1624.81079	-651.15485	637.62036	1598.08325	-658.75531	512.22095	1588.83252	-738.13684	254.64853	1536.80884	-777.72241	73.22561	1492.71570	-821.08539	50.48531	1534.73193	-628.87744	40.41061	1437.18164	-679.25671	1708.96045																					 
